<?xml version="1.0" standalone="no"?>
<!DOCTYPE svg PUBLIC "-//W3C//DTD SVG 20010904//EN"
 "http://www.w3.org/TR/2001/REC-SVG-20010904/DTD/svg10.dtd">
<svg version="1.0" xmlns="http://www.w3.org/2000/svg"
 width="920.000000pt" height="920.000000pt" viewBox="0 0 920.000000 920.000000"
 preserveAspectRatio="xMidYMid meet">

<g transform="translate(0.000000,920.000000) scale(0.100000,-0.100000)"
fill="#000000" stroke="none">
<path d="M6972 8647 l-552 -552 838 -838 837 -837 553 553 552 552 -838 838
-837 837 -553 -553z"/>
<path d="M3323 4998 l-2521 -2523 -111 -345 c-60 -190 -241 -745 -400 -1234
-160 -490 -289 -891 -288 -893 2 -1 286 90 633 203 346 112 735 239 864 280
129 42 406 132 615 200 l380 124 2513 2512 c1381 1382 2512 2518 2512 2523 0
10 -1660 1675 -1670 1675 -3 0 -1140 -1135 -2527 -2522z m2667 1517 l135 -135
-2080 -2080 -2081 -2081 -137 138 -137 138 2078 2078 c1142 1142 2079 2077
2082 2077 3 0 66 -61 140 -135z"/>
</g>
</svg>
