<?xml version="1.0" standalone="no"?>
<!DOCTYPE svg PUBLIC "-//W3C//DTD SVG 20010904//EN"
 "http://www.w3.org/TR/2001/REC-SVG-20010904/DTD/svg10.dtd">
<svg version="1.0" xmlns="http://www.w3.org/2000/svg"
 width="512.000000pt" height="512.000000pt" viewBox="0 0 512.000000 512.000000"
 preserveAspectRatio="xMidYMid meet">

<g transform="translate(0.000000,512.000000) scale(0.100000,-0.100000)"
fill="#000000" stroke="none">
<path d="M1659 5105 c-55 -30 -59 -57 -59 -364 l0 -281 -397 -1 c-430 0 -450
-2 -487 -52 -20 -26 -21 -41 -21 -213 l0 -184 33 -32 32 -33 1800 0 1800 0 32
33 33 32 0 184 c0 172 -1 187 -21 213 -37 50 -57 52 -486 52 l-398 1 0 281 c0
310 -4 335 -61 364 -42 22 -1760 22 -1800 0z m1431 -520 l0 -105 -530 0 -530
0 0 105 0 105 530 0 530 0 0 -105z"/>
<path d="M1002 1935 l3 -1865 33 -32 32 -33 1490 0 1490 0 32 33 33 32 3 1865
2 1865 -1560 0 -1560 0 2 -1865z m918 -5 l0 -1240 -212 2 -213 3 -3 1238 -2
1237 215 0 215 0 0 -1240z m850 0 l0 -1240 -210 0 -210 0 0 1240 0 1240 210 0
210 0 0 -1240z m858 3 l-3 -1238 -212 -3 -213 -2 0 1240 0 1240 215 0 215 0
-2 -1237z"/>
</g>
</svg>
